<svg width="2699" height="556" viewBox="0 0 2699 556" fill="none" xmlns="http://www.w3.org/2000/svg">
<path d="M632.214 -4.35693e-05H718.643V471.429H860.857V550H632.214V-4.35693e-05ZM894.25 137.5H1071.04V196.429H959.071V305.446H1048.05V364.375H959.071V491.071H1071.04V550H894.25V137.5ZM1193.75 555.893C1162.32 555.893 1138.55 547.054 1122.44 529.375C1106.33 511.304 1098.28 485.571 1098.28 452.179V428.607H1159.57V456.893C1159.57 483.607 1170.76 496.964 1193.16 496.964C1204.16 496.964 1212.41 493.821 1217.91 487.536C1223.8 480.857 1226.75 470.25 1226.75 455.714C1226.75 438.429 1222.82 423.304 1214.96 410.339C1207.1 396.982 1192.57 381.071 1171.35 362.607C1144.64 339.036 1125.98 317.821 1115.37 298.964C1104.76 279.714 1099.46 258.107 1099.46 234.143C1099.46 201.536 1107.71 176.393 1124.21 158.714C1140.71 140.643 1164.67 131.607 1196.1 131.607C1227.14 131.607 1250.51 140.643 1266.23 158.714C1282.33 176.393 1290.39 201.929 1290.39 235.321V252.411H1229.1V231.196C1229.1 217.054 1226.35 206.839 1220.85 200.554C1215.35 193.875 1207.3 190.536 1196.69 190.536C1175.08 190.536 1164.28 203.696 1164.28 230.018C1164.28 244.946 1168.21 258.893 1176.07 271.857C1184.32 284.821 1199.05 300.536 1220.26 319C1247.37 342.571 1266.03 363.982 1276.25 383.232C1286.46 402.482 1291.57 425.071 1291.57 451C1291.57 484.786 1283.12 510.714 1266.23 528.786C1249.73 546.857 1225.57 555.893 1193.75 555.893ZM1413 555.893C1381.57 555.893 1357.8 547.054 1341.7 529.375C1325.59 511.304 1317.54 485.571 1317.54 452.179V428.607H1378.82V456.893C1378.82 483.607 1390.02 496.964 1412.41 496.964C1423.41 496.964 1431.66 493.821 1437.16 487.536C1443.05 480.857 1446 470.25 1446 455.714C1446 438.429 1442.07 423.304 1434.22 410.339C1426.36 396.982 1411.82 381.071 1390.61 362.607C1363.89 339.036 1345.23 317.821 1334.63 298.964C1324.02 279.714 1318.72 258.107 1318.72 234.143C1318.72 201.536 1326.97 176.393 1343.47 158.714C1359.97 140.643 1383.93 131.607 1415.36 131.607C1446.39 131.607 1469.77 140.643 1485.48 158.714C1501.59 176.393 1509.64 201.929 1509.64 235.321V252.411H1448.36V231.196C1448.36 217.054 1445.61 206.839 1440.11 200.554C1434.61 193.875 1426.55 190.536 1415.95 190.536C1394.34 190.536 1383.54 203.696 1383.54 230.018C1383.54 244.946 1387.47 258.893 1395.32 271.857C1403.57 284.821 1418.3 300.536 1439.52 319C1466.63 342.571 1485.29 363.982 1495.5 383.232C1505.72 402.482 1510.82 425.071 1510.82 451C1510.82 484.786 1502.38 510.714 1485.48 528.786C1468.98 546.857 1444.82 555.893 1413 555.893ZM1623.61 78.5714H1533.26V-4.35693e-05H1800.4V78.5714H1710.04V550H1623.61V78.5714ZM1834.19 137.5H2010.98V196.429H1899.01V305.446H1988V364.375H1899.01V491.071H2010.98V550H1834.19V137.5ZM2106.58 339.036L2035.28 137.5H2103.63L2147.24 270.679H2148.42L2193.2 137.5H2254.49L2183.19 339.036L2258.03 550H2189.67L2142.53 406.214H2141.35L2093.03 550H2031.74L2106.58 339.036ZM2339.49 196.429H2271.73V137.5H2472.08V196.429H2404.32V550H2339.49V196.429ZM2587.74 555.893C2556.31 555.893 2532.54 547.054 2516.43 529.375C2500.33 511.304 2492.27 485.571 2492.27 452.179V428.607H2553.56V456.893C2553.56 483.607 2564.75 496.964 2587.15 496.964C2598.15 496.964 2606.4 493.821 2611.9 487.536C2617.79 480.857 2620.74 470.25 2620.74 455.714C2620.74 438.429 2616.81 423.304 2608.95 410.339C2601.09 396.982 2586.56 381.071 2565.34 362.607C2538.63 339.036 2519.97 317.821 2509.36 298.964C2498.75 279.714 2493.45 258.107 2493.45 234.143C2493.45 201.536 2501.7 176.393 2518.2 158.714C2534.7 140.643 2558.66 131.607 2590.09 131.607C2621.13 131.607 2644.5 140.643 2660.22 158.714C2676.33 176.393 2684.38 201.929 2684.38 235.321V252.411H2623.09V231.196C2623.09 217.054 2620.34 206.839 2614.84 200.554C2609.34 193.875 2601.29 190.536 2590.68 190.536C2569.08 190.536 2558.27 203.696 2558.27 230.018C2558.27 244.946 2562.2 258.893 2570.06 271.857C2578.31 284.821 2593.04 300.536 2614.25 319C2641.36 342.571 2660.02 363.982 2670.24 383.232C2680.45 402.482 2685.56 425.071 2685.56 451C2685.56 484.786 2677.11 510.714 2660.22 528.786C2643.72 546.857 2619.56 555.893 2587.74 555.893Z" fill="url(#paint0_linear_304_19)"/>
<path d="M178.25 94.8253C195.299 81.9131 216.113 74.9489 237.5 75.0003C243.5 75.0003 248.275 78.1253 251.05 80.2753C254.15 82.7253 257.05 85.8503 259.65 88.9753C261.494 91.2144 262.501 94.0249 262.5 96.9253V187.5H235.375C232.426 179.16 226.624 172.131 218.994 167.655C211.364 163.179 202.397 161.544 193.678 163.04C184.96 164.536 177.05 169.066 171.349 175.83C165.647 182.593 162.52 191.154 162.52 200C162.52 208.846 165.647 217.408 171.349 224.171C177.05 230.934 184.96 235.464 193.678 236.96C202.397 238.456 211.364 236.822 218.994 232.346C226.624 227.87 232.426 220.84 235.375 212.5H262.5V447.875C262.501 449.726 262.091 451.554 261.3 453.227C260.509 454.9 259.356 456.377 257.925 457.55C246.375 467 230.925 475 212.5 475C182.85 475 160.775 460.05 146.5 442.175C136.244 429.439 129.219 414.412 126.025 398.375C116.312 395.786 107.306 391.043 99.675 384.5C85.875 372.675 75 353.5 75 325C75 311.075 75.925 298.5 78 287.5H156.25C172.15 287.5 185.25 299.375 187.25 314.725C178.936 317.734 171.953 323.584 167.533 331.241C163.113 338.899 161.541 347.872 163.094 356.576C164.648 365.28 169.227 373.155 176.022 378.811C182.818 384.467 191.394 387.539 200.235 387.487C209.077 387.434 217.615 384.259 224.343 378.522C231.07 372.785 235.555 364.856 237.004 356.134C238.453 347.412 236.774 338.458 232.263 330.854C227.752 323.25 220.699 317.484 212.35 314.575C211.296 300.418 204.928 287.182 194.523 277.524C184.119 267.866 170.447 262.499 156.25 262.5H86.025C89.85 255.05 94.975 248.75 101.65 244.275C103.338 243.158 105.11 242.171 106.95 241.325C99.85 220.525 101.7 196.175 108.55 177.05C112.925 164.75 119.875 153.125 129.425 145.375C135.725 140.25 143.225 136.875 151.425 136.225C155.025 119.15 165.125 105.025 178.25 94.8253ZM287.5 387.5H306.25C321.168 387.5 335.476 381.574 346.025 371.025C356.574 360.476 362.5 346.169 362.5 331.25V285.375C370.84 282.427 377.869 276.624 382.345 268.994C386.821 261.364 388.456 252.397 386.96 243.679C385.464 234.96 380.934 227.051 374.171 221.349C367.407 215.647 358.846 212.52 350 212.52C341.154 212.52 332.593 215.647 325.829 221.349C319.066 227.051 314.536 234.96 313.04 243.679C311.544 252.397 313.179 261.364 317.655 268.994C322.131 276.624 329.16 282.427 337.5 285.375V331.25C337.5 348.5 323.5 362.5 306.25 362.5H287.5V96.9253C287.499 94.0249 288.506 91.2144 290.35 88.9753C292.925 85.8503 295.85 82.7253 298.95 80.2753C301.7 78.1253 306.475 75.0003 312.5 75.0003C333.887 74.9489 354.701 81.9131 371.75 94.8253C384.875 105.025 395 119.15 398.575 136.225C406.775 136.85 414.275 140.25 420.575 145.375C430.125 153.125 437.075 164.75 441.45 177.05C448.3 196.175 450.15 220.55 443.05 241.3C444.85 242.15 446.625 243.15 448.35 244.3C455.225 248.875 460.45 255.425 464.3 263.15C471.875 278.275 475 299.375 475 325C475 353.525 464.125 372.675 450.325 384.5C442.694 391.043 433.688 395.786 423.975 398.375C421.475 412.325 414.475 428.475 403.5 442.175C389.25 460.05 367.15 475 337.5 475C319.1 475 303.625 467 292.1 457.55C290.664 456.379 289.507 454.904 288.711 453.231C287.915 451.557 287.502 449.728 287.5 447.875V387.5ZM200 187.5C196.685 187.5 193.505 188.817 191.161 191.161C188.817 193.506 187.5 196.685 187.5 200C187.5 203.315 188.817 206.495 191.161 208.839C193.505 211.183 196.685 212.5 200 212.5C203.315 212.5 206.495 211.183 208.839 208.839C211.183 206.495 212.5 203.315 212.5 200C212.5 196.685 211.183 193.506 208.839 191.161C206.495 188.817 203.315 187.5 200 187.5ZM200 337.5C196.685 337.5 193.505 338.817 191.161 341.161C188.817 343.506 187.5 346.685 187.5 350C187.5 353.315 188.817 356.495 191.161 358.839C193.505 361.183 196.685 362.5 200 362.5C203.315 362.5 206.495 361.183 208.839 358.839C211.183 356.495 212.5 353.315 212.5 350C212.5 346.685 211.183 343.506 208.839 341.161C206.495 338.817 203.315 337.5 200 337.5ZM350 262.5C353.315 262.5 356.495 261.183 358.839 258.839C361.183 256.495 362.5 253.315 362.5 250C362.5 246.685 361.183 243.506 358.839 241.161C356.495 238.817 353.315 237.5 350 237.5C346.685 237.5 343.505 238.817 341.161 241.161C338.817 243.506 337.5 246.685 337.5 250C337.5 253.315 338.817 256.495 341.161 258.839C343.505 261.183 346.685 262.5 350 262.5Z" fill="url(#paint1_linear_304_19)"/>
<path d="M0 275C0 123.122 123.122 0 275 0C426.878 0 550 123.122 550 275C550 426.878 426.878 550 275 550C123.122 550 0 426.878 0 275ZM528 275C528 135.272 414.728 22 275 22C135.272 22 22 135.272 22 275C22 414.728 135.272 528 275 528C414.728 528 528 414.728 528 275Z" fill="url(#paint2_linear_304_19)"/>
<defs>
<linearGradient id="paint0_linear_304_19" x1="600" y1="0" x2="2702.43" y2="245.596" gradientUnits="userSpaceOnUse">
<stop stop-color="#FF7A00"/>
<stop offset="1" stop-color="#FF0051"/>
</linearGradient>
<linearGradient id="paint1_linear_304_19" x1="75" y1="75" x2="480.742" y2="87.4193" gradientUnits="userSpaceOnUse">
<stop stop-color="#FF7A00"/>
<stop offset="1" stop-color="#FF0051"/>
</linearGradient>
<linearGradient id="paint2_linear_304_19" x1="550" y1="550" x2="-7.89476" y2="532.923" gradientUnits="userSpaceOnUse">
<stop stop-color="#FF7A00"/>
<stop offset="1" stop-color="#FF0051"/>
</linearGradient>
</defs>
</svg>
